<?xml version="1.0" encoding="utf-8"?>
<!-- Generator: Adobe Illustrator 23.0.1, SVG Export Plug-In . SVG Version: 6.00 Build 0)  -->
<svg version="1.1" id="Layer_1" xmlns="http://www.w3.org/2000/svg" xmlns:xlink="http://www.w3.org/1999/xlink" x="0px" y="0px"
	 viewBox="0 0 1267.33 432" style="enable-background:new 0 0 1267.33 432;" xml:space="preserve">
<style type="text/css">
	.st0{fill:#808285;stroke:#808285;stroke-width:1.5;stroke-miterlimit:10;}
	.st1{fill:#4F719A;}
	.st2{fill:#BBD7ED;}
</style>
<g>
	<g>
		<path class="st0" d="M107.52,205.85c-2.3-2.13-5-3.94-8.11-5.4c-3.11-1.47-6.38-2.7-9.81-3.71c-3.43-1-6.94-1.87-10.55-2.6
			c-3.6-0.73-7.1-1.43-10.5-2.1c-5.8-1.13-10.64-2.35-14.52-3.65c-3.89-1.3-7.02-2.8-9.38-4.51c-2.37-1.7-4.05-3.62-5.04-5.76
			c-0.99-2.13-1.48-4.64-1.48-7.51c0-6.27,2.67-11.21,8-14.82c5.34-3.6,13.2-5.4,23.59-5.4c4.95,0,9.35,0.52,13.2,1.55
			c3.85,1.04,7.17,2.47,9.97,4.3c2.79,1.84,5.07,4.02,6.84,6.56c1.77,2.54,3.04,5.27,3.82,8.21h8.16c-0.64-4.47-2.1-8.48-4.4-12.01
			c-2.3-3.54-5.3-6.54-9.01-9.01c-3.71-2.47-8.04-4.35-12.99-5.66c-4.95-1.3-10.39-1.95-16.33-1.95c-5.94,0-11.36,0.7-16.27,2.1
			c-4.91,1.4-9.12,3.37-12.62,5.91c-3.5,2.54-6.2,5.57-8.11,9.11c-1.91,3.54-2.86,7.44-2.86,11.71c0,3.94,0.71,7.39,2.12,10.36
			c1.41,2.97,3.6,5.61,6.57,7.91c2.97,2.3,6.73,4.32,11.29,6.06c4.56,1.74,10.02,3.27,16.38,4.61c7.7,1.54,14.15,3.04,19.35,4.5
			c5.2,1.47,9.38,3.14,12.56,5c3.18,1.87,5.44,4.05,6.78,6.56c1.34,2.5,2.01,5.59,2.01,9.26c0,3.47-0.78,6.59-2.33,9.36
			s-3.8,5.14-6.73,7.11c-2.93,1.96-6.47,3.47-10.6,4.5c-4.14,1.03-8.78,1.55-13.94,1.55c-4.95,0-9.61-0.4-13.99-1.2
			c-4.38-0.8-8.29-2.17-11.71-4.11c-3.43-1.93-6.31-4.54-8.64-7.81c-2.33-3.27-3.92-7.37-4.77-12.31h-8.37
			c0.35,5.14,1.59,9.76,3.71,13.86c2.12,4.11,5.18,7.61,9.17,10.51c3.99,2.91,8.92,5.14,14.79,6.71c5.87,1.57,12.72,2.35,20.57,2.35
			c6.01,0,11.57-0.78,16.7-2.35c5.12-1.57,9.54-3.77,13.25-6.61c3.71-2.84,6.61-6.21,8.69-10.11c2.08-3.9,3.13-8.19,3.13-12.86
			c0-4.07-0.69-7.59-2.07-10.56C111.66,210.54,109.82,207.99,107.52,205.85z"/>
		<path class="st0" d="M229.5,206.87c0,8.48-0.78,15.38-2.33,20.68c-1.56,5.29-3.83,9.45-6.84,12.47c-3,3.02-6.75,5.08-11.24,6.16
			c-4.49,1.09-9.63,1.63-15.43,1.63c-5.73,0-10.8-0.54-15.21-1.63c-4.42-1.08-8.16-3.12-11.24-6.11c-3.07-2.98-5.41-7.14-7-12.47
			c-1.59-5.33-2.39-12.24-2.39-20.72V142.4h-8.48v64.77c0,3.67,0.12,7.43,0.37,11.3c0.25,3.87,0.86,7.6,1.86,11.2
			c0.99,3.6,2.44,6.99,4.35,10.18c1.91,3.19,4.49,5.98,7.74,8.35c3.25,2.38,7.33,4.26,12.25,5.65c4.91,1.39,10.83,2.09,17.76,2.09
			c8.76,0,16.01-1.1,21.73-3.31c5.73-2.21,10.25-5.4,13.57-9.58c3.32-4.17,5.65-9.28,7-15.33c1.34-6.04,2.01-12.9,2.01-20.57V142.4
			h-8.48V206.87z"/>
		<path class="st0" d="M344.59,148.67c-3.99-2.39-8.61-4.03-13.83-4.93c-5.23-0.9-10.67-1.35-16.33-1.35h-42.2v113.56h8.48v-47.91
			h34.77c13.78,0,24.26-2.9,31.43-8.71c7.17-5.81,10.76-14.28,10.76-25.41c0-6.29-1.19-11.48-3.55-15.56
			C351.76,154.29,348.58,151.06,344.59,148.67z M346.97,185.28c-1.2,3.15-3.13,5.79-5.78,7.93c-2.65,2.14-6.06,3.77-10.23,4.87
			c-4.17,1.11-9.22,1.66-15.16,1.66h-35.09V150.7h34.67c4.45,0,8.69,0.28,12.72,0.83c4.03,0.55,7.58,1.68,10.66,3.37
			c3.07,1.7,5.51,4.1,7.32,7.21c1.8,3.11,2.7,7.19,2.7,12.24C348.77,178.49,348.17,182.14,346.97,185.28z"/>
		<polygon class="st0" points="400.41,200.99 468.37,200.99 468.37,192.69 400.41,192.69 400.41,150.7 472.92,150.7 472.92,142.4 
			391.93,142.4 391.93,255.96 475.79,255.96 475.79,247.66 400.41,247.66 		"/>
		<path class="st0" d="M588.47,225.05c-1.06-2.7-2-5.08-2.81-7.15c-0.81-2.08-1.73-3.98-2.76-5.7c-1.02-1.73-2.24-3.35-3.66-4.87
			c-1.41-1.52-3.21-3.11-5.41-4.77c4.03-0.83,7.54-2.16,10.55-3.99c3-1.83,5.48-4.04,7.42-6.64c1.94-2.59,3.39-5.53,4.35-8.81
			c0.96-3.28,1.43-6.83,1.43-10.63c0-6.08-1.06-11.08-3.18-14.98c-2.12-3.91-4.96-6.96-8.53-9.18c-3.57-2.21-7.63-3.75-12.19-4.62
			c-4.56-0.86-9.28-1.29-14.15-1.29h-52.27v113.56h8.48v-51.23h40.6c3.18,0,5.96,0.56,8.32,1.66c2.37,1.11,4.47,2.61,6.31,4.51
			c1.84,1.9,3.44,4.13,4.82,6.69c1.38,2.56,2.63,5.29,3.76,8.19l11.56,30.18h9.33L588.47,225.05z M570.77,195.18
			c-4.1,0.83-9.01,1.24-14.74,1.24h-40.29V150.7h42.73c10.04,0,17.58,1.68,22.64,5.03c5.05,3.36,7.58,8.94,7.58,16.75
			c0,4.43-0.64,8.16-1.91,11.2c-1.27,3.04-3.23,5.51-5.88,7.41C578.24,192.99,574.87,194.35,570.77,195.18z"/>
	</g>
	<g>
		<g>
			<g>
				<path class="st1" d="M639.23,257.43v-116.6h19.73v97.92h53.35v18.68H639.23z"/>
				<path class="st1" d="M769.84,229.84c5.35,6.17,12.6,9.25,21.74,9.25c9.14,0,16.39-3.08,21.74-9.25
					c5.35-6.17,8.03-14.54,8.03-25.11V140.8h19.73v64.76c0,16.63-4.62,29.44-13.88,38.41c-9.25,8.98-21.13,13.46-35.62,13.46
					c-14.49,0-26.37-4.49-35.62-13.46c-9.26-8.97-13.88-21.78-13.88-38.41V140.8h19.73v63.93
					C761.81,215.31,764.48,223.68,769.84,229.84z"/>
				<path class="st1" d="M904.28,257.43h-19.73V140.71h30.77l35.29,73.3l35.28-73.3h30.6v116.72h-19.73v-91.17l-40.8,80.98h-11.04
					l-40.63-80.98V257.43z"/>
				<path class="st1" d="M1061.48,140.75h19.73v116.68h-19.73V140.75z"/>
				<path class="st1" d="M1213.83,140.8h19.74v116.63h-21.41l-66.22-85.1v85.1h-19.74V140.8h19.74l67.89,87.1V140.8z"/>
			</g>
		</g>
		<g>
			<path class="st2" d="M952.96,209.12c-1.49,0.17-2.98,0.34-4.46,0.5l2.11,4.38L952.96,209.12z"/>
			<path class="st2" d="M712.31,257.41v-15c-29.73,4.86-54.49,11.63-73.08,15l0,0H712.31z"/>
			<path class="st2" d="M791.57,257.41c14.49,0,26.37-4.49,35.62-13.46c5.61-5.44,9.49-12.3,11.7-20.56
				c-7.88,1.08-15.62,2.16-23.21,3.24c-0.73,1.12-1.5,2.2-2.37,3.2c-5.35,6.17-12.6,9.25-21.74,9.25c-7.47,0-13.64-2.09-18.58-6.2
				c-7.94,1.2-15.66,2.38-23.16,3.55c1.75,2.75,3.78,5.26,6.12,7.52C765.21,252.93,777.08,257.41,791.57,257.41z"/>
			<path class="st2" d="M904.28,257.41v-42.55c-6.65,0.82-13.23,1.65-19.73,2.48v40.07H904.28z"/>
			<path class="st2" d="M955.96,247.23l20.51-40.7c-7.9,0.85-15.75,1.71-23.51,2.59l-2.35,4.88l-2.11-4.38
				c-7.13,0.81-14.2,1.63-21.21,2.46l17.63,35.14H955.96z"/>
			<path class="st2" d="M1016.5,257.41v-55c-6.62,0.65-13.19,1.32-19.73,1.98v53.02H1016.5z"/>
			<path class="st2" d="M1081.21,257.41v-60.84c-6.6,0.54-13.18,1.1-19.73,1.67v59.17H1081.21z"/>
			<path class="st2" d="M1145.93,257.41v-65.59c-6.59,0.42-13.17,0.87-19.74,1.33v64.26H1145.93z"/>
			<path class="st2" d="M1233.56,257.41v-70.07c-6.58,0.25-13.16,0.51-19.74,0.8v39.73l-29.85-38.29
				c-7.87,0.42-15.73,0.86-23.56,1.33l51.74,66.49H1233.56z"/>
		</g>
	</g>
	<g>
		<g>
			<path class="st1" d="M711.91,278.49c-1.56-1.49-3.68-2.48-6.05-2.48c-1.79,0-4.34,1.04-4.66,3.13c-0.35,2.18,2.15,3.03,3.75,3.57
				l2.36,0.74c4.96,1.53,8.57,4.16,7.61,10.22c-0.59,3.72-2.08,7.54-5.46,10.07c-3.32,2.48-7.41,3.52-11.17,3.52
				c-4.71,0-9.07-1.58-12.47-4.27l5.41-7.84c2.09,2.13,4.69,3.88,8.01,3.88c2.28,0,4.89-1.15,5.31-3.78
				c0.43-2.72-3.24-3.66-5.23-4.26c-5.83-1.74-9.59-3.33-8.44-10.57c1.2-7.59,7.39-12.55,14.88-12.55c3.77,0,8.19,1.19,11.21,3.07
				L711.91,278.49z"/>
			<path class="st1" d="M731.05,306.27h-9.72l4.62-29.17h-8.03l1.3-8.23h25.79l-1.31,8.23h-8.03L731.05,306.27z"/>
			<path class="st1" d="M772.73,306.27h-12.11l-6.9-14.38h-0.1l-2.28,14.38h-9.71l5.92-37.4h14.53c7.39,0,12.44,3.52,11.17,11.51
				c-0.81,5.15-4.4,9.61-9.85,10.56L772.73,306.27z M754.61,285.64h0.94c3.18,0,6.84-0.6,7.48-4.67c0.65-4.06-2.83-4.66-6-4.66
				h-0.95L754.61,285.64z"/>
			<path class="st1" d="M783.43,299.77l-3.61,6.51H769.5l20.3-37.4h10.61l8.16,37.4h-10.36l-1.41-6.51H783.43z M793.28,280.43h-0.1
				l-5.9,11.9h8.08L793.28,280.43z"/>
			<path class="st1" d="M821.04,306.27h-9.72l4.62-29.17h-8.04l1.31-8.23H835l-1.31,8.23h-8.04L821.04,306.27z"/>
			<path class="st1" d="M837.7,299.77l-3.61,6.51h-10.32l20.31-37.4h10.61l8.17,37.4H852.5l-1.4-6.51H837.7z M847.56,280.43h-0.09
				l-5.91,11.9h8.09L847.56,280.43z"/>
			<path class="st1" d="M891.82,281.42c-1.57-2.68-4.55-4.12-7.88-4.12c-5.95,0-10.69,4.57-11.61,10.37
				c-0.94,5.91,2.46,10.17,8.51,10.17c3.17,0,6.6-1.54,9.01-3.96L888,305.53c-3.38,1-5.82,1.73-8.85,1.73
				c-5.21,0-9.86-1.98-13.17-5.5c-3.53-3.73-4.64-8.59-3.76-14.14c0.81-5.1,3.52-10.01,7.68-13.68c4.26-3.77,9.93-6.05,15.19-6.05
				c3.13,0,5.89,0.69,8.58,1.88L891.82,281.42z"/>
			<path class="st1" d="M903.46,299.77l-3.61,6.51h-10.32l20.31-37.4h10.62l8.16,37.4h-10.36l-1.4-6.51H903.46z M913.31,280.43h-0.1
				l-5.9,11.9h8.08L913.31,280.43z"/>
			<path class="st1" d="M957.57,281.42c-1.56-2.68-4.56-4.12-7.88-4.12c-5.95,0-10.69,4.57-11.61,10.37
				c-0.93,5.91,2.46,10.17,8.5,10.17c3.18,0,6.6-1.54,9.02-3.96l-1.85,11.65c-3.38,1-5.83,1.73-8.85,1.73
				c-5.2,0-9.85-1.98-13.16-5.5c-3.53-3.73-4.64-8.59-3.76-14.14c0.81-5.1,3.52-10.01,7.67-13.68c4.27-3.77,9.94-6.05,15.2-6.05
				c3.12,0,5.89,0.69,8.58,1.88L957.57,281.42z"/>
			<path class="st1" d="M984.55,283.3l2.29-14.43h9.73l-5.93,37.4h-9.72l2.42-15.33H969.3l-2.43,15.33h-9.72l5.93-37.4h9.72
				l-2.28,14.43H984.55z"/>
			<path class="st1" d="M1008.84,277.1l-0.99,6.25h12.23l-1.31,8.24h-12.23l-1.02,6.44h12.83l-1.3,8.24H994.5l5.92-37.4h22.55
				l-1.31,8.23H1008.84z"/>
		</g>
		<g>
			<path class="st1" d="M648.91,296.01l-3.4,10.26h-4.37l11.12-32.62h5.1l11.16,32.62h-4.51l-3.5-10.26H648.91z M659.64,292.72
				l-3.2-9.39c-0.73-2.13-1.21-4.07-1.7-5.95h-0.1c-0.49,1.94-1.02,3.92-1.65,5.91l-3.2,9.44H659.64z"/>
		</g>
		<g>
			<path class="st1" d="M1052.42,305.21c-1.55,0.77-4.66,1.55-8.64,1.55c-9.22,0-16.16-5.81-16.16-16.5
				c0-10.21,6.94-17.13,17.09-17.13c4.08,0,6.65,0.87,7.77,1.45l-1.02,3.44c-1.6-0.78-3.88-1.36-6.6-1.36
				c-7.67,0-12.77,4.89-12.77,13.46c0,7.99,4.61,13.12,12.57,13.12c2.57,0,5.19-0.53,6.89-1.36L1052.42,305.21z"/>
			<path class="st1" d="M1084.66,289.62c0,11.23-6.84,17.18-15.19,17.18c-8.64,0-14.71-6.68-14.71-16.55
				c0-10.36,6.46-17.13,15.19-17.13C1078.88,273.12,1084.66,279.94,1084.66,289.62z M1059.27,290.16c0,6.97,3.79,13.21,10.44,13.21
				c6.7,0,10.48-6.15,10.48-13.55c0-6.49-3.4-13.26-10.44-13.26C1062.77,276.56,1059.27,282.99,1059.27,290.16z"/>
			<path class="st1" d="M1117.72,291.95c-0.24-4.55-0.53-10.02-0.49-14.08h-0.15c-1.12,3.82-2.48,7.89-4.13,12.39l-5.78,15.83h-3.2
				l-5.29-15.54c-1.55-4.6-2.86-8.81-3.79-12.68h-0.1c-0.1,4.07-0.34,9.54-0.63,14.42l-0.87,13.99h-4.03l2.28-32.62h5.39l5.58,15.78
				c1.36,4.02,2.48,7.6,3.3,10.99h0.15c0.83-3.29,1.99-6.87,3.45-10.99l5.82-15.78h5.39l2.04,32.62h-4.13L1117.72,291.95z"/>
			<path class="st1" d="M1129.17,274.04c2.04-0.34,4.71-0.63,8.11-0.63c4.17,0,7.23,0.97,9.17,2.71c1.8,1.55,2.86,3.92,2.86,6.82
				c0,2.95-0.87,5.28-2.52,6.97c-2.23,2.37-5.87,3.58-10,3.58c-1.26,0-2.43-0.05-3.4-0.29v13.07h-4.22V274.04z M1133.4,289.77
				c0.92,0.24,2.09,0.34,3.49,0.34c5.1,0,8.2-2.47,8.2-6.97c0-4.31-3.06-6.39-7.72-6.39c-1.84,0-3.25,0.15-3.98,0.34V289.77z"/>
			<path class="st1" d="M1156.21,296.01l-3.4,10.26h-4.37l11.12-32.62h5.1l11.16,32.62h-4.51l-3.5-10.26H1156.21z M1166.94,292.72
				l-3.2-9.39c-0.73-2.13-1.21-4.07-1.7-5.95h-0.1c-0.49,1.94-1.02,3.92-1.65,5.91l-3.2,9.44H1166.94z"/>
			<path class="st1" d="M1180.63,306.27v-32.62h4.61l10.48,16.5c2.43,3.82,4.32,7.26,5.87,10.6l0.1-0.05
				c-0.39-4.36-0.49-8.32-0.49-13.41v-13.65h3.98v32.62h-4.27l-10.39-16.55c-2.28-3.63-4.47-7.36-6.12-10.89l-0.15,0.05
				c0.24,4.11,0.34,8.03,0.34,13.46v13.94H1180.63z"/>
			<path class="st1" d="M1219.52,306.27v-13.84l-10.34-18.78h4.81l4.61,9c1.26,2.47,2.23,4.45,3.25,6.73h0.1
				c0.92-2.13,2.04-4.26,3.3-6.73l4.71-9h4.81l-10.97,18.73v13.89H1219.52z"/>
		</g>
	</g>
</g>
<rect x="884.18" y="257.41" class="st1" width="10.47" height="10.47"/>
</svg>
